HIERARCHY
ROOT Hips
{
	OFFSET 0.000000 0.000000 0.000000 
	CHANNELS 6 Xposition Yposition Zposition Yrotation Zrotation Xrotation 
	JOINT Lumbar
	{
		OFFSET 0.000000 0.000000 0.000000 
		CHANNELS 3 Zrotation Xrotation Yrotation
		JOINT Neck
		{
			OFFSET 0.000000 0.445665 0.000000 
			CHANNELS 3 Zrotation Xrotation Yrotation
			End Site
			{
				OFFSET 0.000000 0.227535 0.000000 
			}
		}
		JOINT RightShoulder
		{
			OFFSET 0.019635 0.377685 0.194865 
			CHANNELS 3 Zrotation Xrotation Yrotation
			JOINT RightElbow
			{
				OFFSET 0.000000 -0.243375 0.000000 
				CHANNELS 2 Zrotation Yrotation
				JOINT RightWrist
				{
					OFFSET 0.000000 -0.264825 0.000000 
					CHANNELS 2 Zrotation Xrotation
					End Site
					{
						OFFSET 0.006600 -0.176220 0.000990 
					}
				}
			}
		}
		JOINT LeftShoulder
		{
			OFFSET 0.019635 0.377685 -0.194865 
			CHANNELS 3 Zrotation Xrotation Yrotation
			JOINT LeftElbow
			{
				OFFSET 0.000000 -0.243375 0.000000 
				CHANNELS 2 Zrotation Yrotation
				JOINT LeftWrist
				{
					OFFSET 0.000000 -0.264825 0.000000 
					CHANNELS 2 Zrotation Xrotation
					End Site
					{
						OFFSET 0.006600 -0.176220 -0.000990 
					}
				}
			}
		}
	}
	JOINT RightHip
	{
		OFFSET 0.052140 -0.069960 0.075570 
		CHANNELS 3 Zrotation Xrotation Yrotation
		JOINT RightKnee
		{
			OFFSET 0.000000 -0.402270 0.000000 
			CHANNELS 1 Zrotation
			JOINT RightAnkle
			{
				OFFSET 0.000000 -0.404085 0.000000 
				CHANNELS 3 Zrotation Xrotation Yrotation
				End Site
				{
					OFFSET 0.204105 -0.089430 0.008415 
				}
			}
		}
	}
	JOINT LeftHip
	{
		OFFSET 0.052140 -0.069960 -0.075570 
		CHANNELS 3 Zrotation Xrotation Yrotation
		JOINT LeftKnee
		{
			OFFSET 0.000000 -0.402270 0.000000 
			CHANNELS 1 Zrotation
			JOINT LeftAnkle
			{
				OFFSET 0.000000 -0.404085 0.000000 
				CHANNELS 3 Zrotation Xrotation Yrotation
				End Site
				{
					OFFSET 0.204105 -0.089430 -0.008415 
				}
			}
		}
	}
}
MOTION
Frames: 31
Frame Time: 0.02
0 0.95578 -0 152.76649 0 -2.70598 4.86848 4.15538 -3.44515 -33.03289 5.77403 3.88436 26.46574 -21.74916 12.35208 9.28261 81.46657 -1.95236 -4.04717 20.88418 9.21919 -12.89485 5.77354 -78.79454 -1.53145 -0.49353 -4.68002 9.29966 -1.12053 -7.36547 -8.0334 -3.0356 -8.92554 -3.30247 7.37425 20.04601 -6.36269 -6.17307 3.26398 8.16236
-0.00102 0.95572 0.00083 152.64745 0 -2.72046 4.96022 4.18486 -3.28178 -33.16165 5.7252 3.99387 26.28109 -21.68033 12.10784 9.20794 81.45495 -1.89227 -3.93844 21.12741 9.24246 -12.7481 6.05853 -78.82623 -1.78486 -0.05084 -4.59317 9.25764 -0.94075 -7.59218 -7.87166 -3.07315 -9.07338 -3.36682 7.30548 20.22362 -6.33877 -6.15495 3.27726 8.17763
-0.00204 0.95565 0.00165 152.52922 0 -2.73446 5.05196 4.21389 -3.12072 -33.29089 5.67821 4.10356 26.10298 -21.61469 11.87309 9.14141 81.45291 -1.84115 -3.83496 21.37594 9.26327 -12.60474 6.34766 -78.86832 -2.0437 0.39491 -4.50572 9.21574 -0.7614 -7.82023 -7.70913 -3.11085 -9.22174 -3.43112 7.23684 20.39929 -6.31479 -6.13683 3.29043 8.19288
-0.00305 0.95557 0.00246 152.41271 0 -2.74668 5.1424 4.241 -2.96453 -33.41801 5.63695 4.21411 25.93417 -21.55804 11.66244 9.09377 81.43823 -1.79895 -3.75147 21.63452 9.27708 -12.46999 6.64625 -78.91027 -2.30724 0.85945 -4.41441 9.17362 -0.58209 -8.05606 -7.54163 -3.14968 -9.3736 -3.4959 7.16773 20.56928 -6.28938 -6.11886 3.30321 8.20807
-0.0041 0.95552 0.00336 152.28666 0 -2.76832 5.23708 4.27778 -2.77925 -33.55001 5.56395 4.31899 25.69798 -21.45002 11.3104 8.93018 81.42978 -1.67776 -3.56216 21.82365 9.33106 -12.28533 6.88252 -78.90263 -2.52216 1.2272 -4.34279 9.1323 -0.40275 -8.25096 -7.40014 -3.18269 -9.50678 -3.55822 7.10068 20.76982 -6.27032 -6.10051 3.31794 8.22336
-0.00506 0.95542 0.00405 152.18119 0 -2.77 5.32449 4.29442 -2.6579 -33.67585 5.55912 4.43651 25.61685 -21.45331 11.26707 9.0228 81.44933 -1.74527 -3.5968 22.17049 9.29793 -12.20931 7.2587 -79.03402 -2.85586 1.79745 -4.23009 9.08956 -0.2235 -8.53205 -7.20399 -3.22786 -9.67943 -3.6256 7.02963 20.90524 -6.23869 -6.08268 3.32862 8.23859
-0.00573 0.95519 0.00423 152.1291 0 -2.71473 5.37862 4.25103 -2.69691 -33.75088 5.74077 4.5868 25.8726 -21.75405 12.02659 9.76683 81.19145 -2.17329 -4.27349 22.88498 9.03375 -12.41933 7.98228 -79.272 -3.40828 2.97875 -3.99234 9.03984 -0.03852 -9.06958 -6.84437 -3.30996 -9.97114 -3.70899 6.94301 20.85917 -6.16552 -6.06793 3.32744 8.25399
-0.00631 0.95491 0.0042 152.09813 0 -2.63962 5.42793 4.18818 -2.80296 -33.82557 5.99142 4.75022 26.30096 -22.16937 13.1065 10.78457 81.01872 -2.82115 -5.17213 23.77109 8.68071 -12.74261 8.85926 -79.69622 -4.10474 4.35595 -3.71495 8.98939 0.14696 -9.69136 -6.43164 -3.40366 -10.30238 -3.79642 6.8533 20.74667 -6.08251 -6.05299 3.3224 8.27023
-0.00695 0.95466 0.00423 152.06 0 -2.57468 5.48806 4.13695 -2.88962 -33.92306 6.21236 4.9094 26.71139 -22.5391 14.07473 11.70961 81.04796 -3.47444 -5.95544 24.62493 8.36037 -13.02246 9.68708 -80.22297 -4.80287 5.61173 -3.46294 8.94091 0.32671 -10.26331 -6.05066 -3.49016 -10.60783 -3.88177 6.7676 20.66679 -6.00621 -6.03752 3.31943 8.28471
-0.00752 0.9544 0.00441 152.01257 0 -2.50474 5.51164 4.07363 -2.93167 -33.92671 6.42778 5.06195 26.87049 -22.88127 14.9048 12.48477 80.09477 -3.68594 -6.80195 25.28933 8.06789 -13.26514 10.41096 -79.98188 -5.20369 7.00542 -3.17996 8.88466 0.52363 -10.88386 -5.63685 -3.58539 -10.94129 -3.97134 6.67006 20.58052 -5.91359 -6.02621 3.31467 8.30114
-0.0082 0.95414 0.00422 151.98829 0 -2.44066 5.61035 4.03132 -3.07985 -34.1235 6.66927 5.23058 27.58892 -23.30828 16.09235 13.65727 81.16624 -4.86623 -7.56675 26.3845 7.70204 -13.61618 11.40919 -81.35649 -6.27541 8.1567 -2.95196 8.8455 0.69247 -11.42327 -5.27972 -3.66442 -11.23207 -4.04905 6.59751 20.48692 -5.86126 -6.00426 3.31331 8.31857
-0.00923 0.95387 0.00312 152.03354 0 -2.39623 5.91636 4.04823 -3.52781 -34.87288 6.98115 5.44712 29.85565 -23.93823 18.24324 15.68655 88.16863 -8.69726 -8.07621 28.66744 7.10668 -14.20209 12.946 -87.38602 -9.00769 8.60638 -2.88651 8.84379 0.71503 -11.71726 -5.08392 -3.70297 -11.33775 -4.12653 6.58524 20.43051 -5.85062 -5.97024 3.31674 8.29658
-0.01036 0.9536 0.00166 152.09942 0 -2.35858 6.29821 4.08775 -4.07575 -35.81287 7.3137 5.67769 32.67174 -24.6492 20.73224 18.13749 97.13975 -13.48852 -8.49155 31.37086 6.45014 -14.89843 14.78825 -94.99038 -12.43363 8.80291 -2.87766 8.86072 0.71924 -11.92659 -4.94833 -3.7238 -11.40698 -4.18485 6.59985 20.36107 -5.89564 -5.92277 3.32446 8.2831
-0.01142 0.95333 0.00035 152.14872 0 -2.31884 6.64644 4.11909 -4.56304 -36.6533 7.62724 5.89801 35.20481 -25.32654 23.03112 20.51054 104.97081 -17.82304 -8.93338 33.8548 5.85288 -15.57024 16.60875 -101.71704 -15.65222 9.10453 -2.8421 8.87618 0.78053 -12.17551 -4.79078 -3.74768 -11.5343 -4.231 6.6085 20.27094 -5.96067 -5.86959 3.33424 8.29366
-0.01257 0.95308 -0.00091 152.22891 0 -2.27453 6.99166 4.14036 -5.11775 -37.5492 7.98523 6.137 37.88054 -25.99862 25.49672 22.41763 113.83442 -22.25805 -9.45017 36.46285 5.11757 -16.14411 17.9374 -109.13447 -18.44426 9.45317 -2.80895 8.86388 0.64793 -12.42368 -4.60933 -3.79178 -11.4995 -4.36881 6.59114 20.29193 -5.82862 -5.86443 3.32817 8.18771
-0.01356 0.95278 -0.00237 152.24971 0 -2.24125 7.36033 4.18889 -5.55383 -38.37373 8.25283 6.33795 40.39262 -26.69412 27.68918 25.38595 121.02169 -26.70029 -9.7875 38.91221 4.659 -16.93864 20.36481 -115.48432 -22.2576 9.64351 -2.78521 8.91154 0.89992 -12.65091 -4.49171 -3.79104 -11.77841 -4.3069 6.63374 20.07786 -6.12729 -5.75845 3.35468 8.32484
-0.01407 0.95228 -0.00429 152.09857 0 -2.23944 7.7829 4.30128 -5.64724 -38.96471 8.28112 6.45046 42.27327 -27.47876 29.06007 31.22816 123.02748 -30.99927 -9.63453 40.80252 4.95739 -18.38504 25.71422 -118.50101 -28.979 9.43742 -2.76988 9.13997 2.34891 -12.852 -4.54402 -3.65662 -13.06205 -3.73401 6.84022 19.2312 -7.54222 -5.35747 3.483 9.14447
-0.01441 0.95173 -0.0064 151.88735 0 -2.24783 8.22508 4.4413 -5.61604 -39.47575 8.21459 6.52065 43.97832 -28.27494 30.13982 38.11108 123.28987 -35.25693 -9.30624 42.52216 5.54035 -20.03661 32.16111 -120.38699 -36.65554 9.08348 -2.76296 9.42435 4.16305 -13.0327 -4.65719 -3.48013 -14.6402 -2.95423 7.10481 18.14726 -9.39913 -4.85963 3.64153 10.2055
-0.01483 0.95122 -0.00841 151.70551 0 -2.25023 8.6532 4.57292 -5.635 -40.0163 8.18103 6.59671 45.79192 -29.03671 31.34128 44.48893 124.39799 -39.48657 -9.06896 44.32953 6.00889 -21.54743 38.13424 -122.79094 -43.72506 8.81054 -2.75486 9.67023 5.72207 -13.21482 -4.73723 -3.33238 -15.99596 -2.24548 7.34012 17.16232 -11.09369 -4.41869 3.7778 11.14782
-0.01524 0.95065 -0.01049 151.51586 0 -2.25968 9.10557 4.68871 -5.68352 -40.59089 8.19078 6.72867 47.50147 -29.92612 32.59988 51.02816 125.35424 -43.95137 -8.78137 46.10446 6.41502 -23.26076 44.0288 -125.23677 -51.54878 8.4717 -2.73761 9.97221 7.64932 -13.42622 -4.84239 -3.14406 -17.71644 -1.63251 7.59014 16.21012 -12.6306 -3.92127 3.95034 12.13027
-0.01563 0.95018 -0.01245 151.32769 0 -2.25543 9.51129 4.84256 -5.64121 -41.07489 8.08774 6.73521 49.38134 -30.54934 33.66537 57.45919 126.1809 -47.89908 -8.55728 47.90635 7.01611 -24.60206 50.32334 -127.30107 -58.01972 8.23692 -2.74061 10.17008 8.90612 -13.57407 -4.90899 -3.02966 -18.75752 -0.77193 7.82092 15.13863 -14.59637 -3.52073 4.05434 13.0841
-0.01595 0.94999 -0.01404 151.1602 0 -2.22246 9.78111 5.10481 -5.36377 -41.31129 7.69485 6.39476 51.7483 -30.45138 34.27022 63.44949 127.11912 -50.46382 -8.55866 49.77305 8.11611 -24.84279 57.62444 -128.62472 -60.51251 8.3384 -2.79807 10.06928 8.13913 -13.54095 -4.8531 -3.13665 -17.7652 0.72775 8.0018 13.75247 -17.66774 -3.39228 3.96354 13.91742
-0.01627 0.9499 -0.01551 150.99591 0 -2.17332 10.00329 5.40248 -5.00153 -41.46109 7.19235 5.93146 54.29322 -30.08189 34.68835 69.27028 127.96898 -52.49704 -8.62911 51.67842 9.39723 -24.7053 65.25532 -129.58867 -61.6083 8.54866 -2.87544 9.86128 6.6999 -13.44665 -4.75621 -3.31826 -16.09464 2.46763 8.158 12.26263 -21.14773 -3.36731 3.80295 14.70902
-0.01663 0.94977 -0.01703 150.82873 0 -2.12376 10.24849 5.67718 -4.68724 -41.66125 6.74039 5.53166 56.77316 -29.82494 35.18988 75.09451 128.82146 -54.74748 -8.66357 53.59993 10.57593 -24.75611 72.62365 -130.68563 -63.347 8.70195 -2.94268 9.70056 5.62372 -13.38803 -4.67848 -3.46119 -14.79128 4.09434 8.31379 10.84874 -24.42348 -3.3088 3.67233 15.50978
-0.01679 0.94959 -0.01855 150.66521 0 -2.10673 10.48893 5.98166 -4.32872 -41.81397 6.28021 5.09831 59.18697 -29.61303 35.68937 81.2722 129.77359 -57.10481 -8.71114 55.38084 11.84925 -24.74679 80.51221 -131.87295 -65.08873 8.88145 -3.01384 9.5476 4.3195 -13.29662 -4.60063 -3.62275 -13.25106 5.74784 8.52035 9.30482 -27.80091 -3.19399 3.54773 16.3656
-0.01739 0.94955 -0.02004 150.49599 0 -2.01875 10.72736 6.23242 -4.04409 -42.04386 5.81468 4.70581 61.77455 -29.24425 36.15031 86.65208 130.51872 -59.10744 -8.75029 57.45665 12.96502 -24.7678 87.37363 -132.80092 -66.47588 9.03448 -3.08266 9.35262 3.32311 -13.25774 -4.51255 -3.76379 -12.03698 7.39658 8.61499 8.01022 -31.04786 -3.21724 3.39665 17.08711
-0.01912 0.94986 -0.02143 150.30685 0 -1.73197 10.97411 6.32383 -3.98214 -42.52569 5.34155 4.46013 64.8696 -28.49536 36.57022 89.92927 130.72646 -60.31269 -8.74868 60.41558 13.59812 -24.98397 91.37496 -133.10489 -67.25311 9.08601 -3.12958 9.06477 3.36338 -13.39217 -4.40526 -3.83005 -11.90786 8.99981 8.40253 7.43138 -33.91406 -3.64134 3.16257 17.50389
-0.0213 0.95031 -0.02279 150.11262 0 -1.37566 11.21963 6.36028 -3.99846 -43.08498 4.87097 4.25951 68.12006 -27.60079 36.95567 92.39257 130.73498 -61.17006 -8.73719 63.6549 14.06548 -25.23888 94.31434 -133.16478 -67.71168 9.10823 -3.17535 8.73864 3.73082 -13.57933 -4.28887 -3.87332 -12.12543 10.58334 8.0788 7.10838 -36.61521 -4.19366 2.90863 17.77597
-0.02331 0.95069 -0.02418 149.92349 0 -1.05554 11.46459 6.42325 -3.98094 -43.59795 4.41259 4.03559 71.25462 -26.78115 37.34517 95.18531 130.83522 -62.15219 -8.73154 66.71694 14.60964 -25.46296 97.69788 -133.33949 -68.29327 9.14583 -3.22855 8.43175 3.93194 -13.73358 -4.17707 -3.92723 -12.17077 12.15835 7.80832 6.6675 -39.34081 -4.65737 2.68195 18.07553
-0.02514 0.95111 -0.02551 149.72341 0 -0.71517 11.71399 6.4808 -3.95315 -44.15593 3.89391 3.8183 74.59 -25.91363 37.77634 98.14582 130.92689 -63.25501 -8.72262 69.99586 15.15462 -25.73089 101.25877 -133.48538 -68.91881 9.1785 -3.25339 8.11334 4.1837 -13.92292 -4.0623 -3.98279 -12.25472 13.81825 7.52547 6.22754 -42.30493 -5.24965 2.37793 18.53258
-0.02748 0.95147 -0.02696 149.54396 0 -0.40106 11.95276 6.53629 -3.96635 -44.63829 3.50288 3.60073 77.53724 -25.11673 38.11583 100.56282 130.98969 -64.03264 -8.71713 72.88271 15.65543 -25.92026 104.19012 -133.63705 -69.39515 9.213 -3.33663 7.81127 4.41713 -14.05315 -3.95167 -4.02862 -12.34921 15.29021 7.24258 5.85048 -44.71448 -5.60708 2.22858 18.63129
